<?xml version="1.0" encoding="UTF-8"?>
<!DOCTYPE svg PUBLIC "-//W3C//DTD SVG 1.1//EN" "http://www.w3.org/Graphics/SVG/1.1/DTD/svg11.dtd">
<!-- Creator: CorelDRAW 2020 (64 Bit) -->
<svg xmlns="http://www.w3.org/2000/svg" xml:space="preserve" width="8.4666mm" height="8.4666mm" version="1.1" style="shape-rendering:geometricPrecision; text-rendering:geometricPrecision; image-rendering:optimizeQuality; fill-rule:evenodd; clip-rule:evenodd"
viewBox="0 0 846.66 846.66"
 xmlns:xlink="http://www.w3.org/1999/xlink"
 xmlns:xodm="http://www.corel.com/coreldraw/odm/2003">
 <defs>
  <style type="text/css">
   <![CDATA[
    .fil0 {fill:none}
    .fil2 {fill:#F1C410}
    .fil1 {fill:#F1C410;fill-rule:nonzero}
   ]]>
  </style>
 </defs>
 <g id="Camada_x0020_1">
  <metadata id="CorelCorpID_0Corel-Layer"/>
  <rect class="fil0" x="-0.01" y="-0.02" width="846.67" height="846.67"/>
  <g id="_2711129862640">
   <polygon class="fil1" points="426.83,683.63 297.39,349.49 221.38,349.49 381.2,741.45 381.2,741.45 381.22,741.5 387.7,757.39 387.53,757.79 421.96,846.66 625.51,349.49 554.77,349.49 "/>
   <path class="fil2" d="M423.33 0c127.81,0 231.42,103.61 231.42,231.42l-56.27 0c0,-96.73 -78.42,-175.14 -175.15,-175.14 -96.73,0 -175.14,78.41 -175.14,175.14l-56.27 0c0,-127.81 103.6,-231.42 231.41,-231.42z"/>
   <circle class="fil2" cx="423.33" cy="231.42" r="89.87"/>
  </g>
 </g>
</svg>
