<?xml version="1.0" encoding="UTF-8"?>
<!DOCTYPE svg PUBLIC "-//W3C//DTD SVG 1.1//EN" "http://www.w3.org/Graphics/SVG/1.1/DTD/svg11.dtd">
<!-- Creator: CorelDRAW 2020 (64 Bit) -->
<svg xmlns="http://www.w3.org/2000/svg" xml:space="preserve" width="25.4mm" height="12.2766mm" version="1.1" style="shape-rendering:geometricPrecision; text-rendering:geometricPrecision; image-rendering:optimizeQuality; fill-rule:evenodd; clip-rule:evenodd"
viewBox="0 0 2540 1227.66"
 xmlns:xlink="http://www.w3.org/1999/xlink"
 xmlns:xodm="http://www.corel.com/coreldraw/odm/2003">
 <defs>
  <style type="text/css">
   <![CDATA[
    .fil1 {fill:#F1C410}
    .fil2 {fill:#333333;fill-rule:nonzero}
    .fil0 {fill:#F1C410;fill-rule:nonzero}
   ]]>
  </style>
 </defs>
 <g id="Camada_x0020_1">
  <metadata id="CorelCorpID_0Corel-Layer"/>
  <g id="_1887788822176">
   <polygon class="fil0" points="1301.57,772.48 1164.7,419.15 1084.32,419.15 1253.32,833.62 1253.32,833.62 1253.34,833.67 1260.19,850.47 1260.02,850.9 1296.42,944.87 1511.66,419.15 1436.86,419.15 "/>
   <path class="fil0" d="M1945.52 834.56c0,-64.69 -22,-117.52 -58.34,-154.51 -37.9,-38.6 -91.6,-60.17 -152.36,-60.17 -60.46,0 -114.23,21.65 -152.25,60.36 -36.34,36.99 -58.44,89.75 -58.44,154.32 0,65.28 21.56,118.63 57.43,155.94 37.18,38.68 89.92,60.32 150.08,60.32 60.98,0 115.67,-21.93 154.43,-61.1 36.87,-37.27 59.45,-90.33 59.45,-155.16zm-44.49 -168.13c39.84,40.57 63.96,98.08 63.96,168.13 0,70.23 -24.74,128.01 -65.16,168.85 -42.42,42.88 -101.99,66.89 -168.19,66.89 -65.53,0 -123.19,-23.8 -164.08,-66.34 -39.28,-40.87 -62.91,-98.85 -62.91,-169.4 0,-69.94 24.24,-127.39 64.07,-167.94 41.72,-42.47 100.38,-66.21 166.1,-66.21 66.03,0 124.61,23.67 166.21,66.02zm-322.37 168.13c0,-54.03 16.15,-94.9 41.67,-123.2 29.2,-32.4 70.42,-48.08 113.7,-48.08 42.66,0 84.66,15.88 114.56,48.68 25.77,28.28 42.39,68.96 42.39,122.6 0,53.93 -16.91,94.76 -43.07,123.15 -30.42,33.01 -73.14,48.92 -116.27,48.92 -42.85,0 -83.4,-15.68 -112.09,-48.2 -25.08,-28.42 -40.89,-69.5 -40.89,-123.87zm56.12 -110.19c-22.44,24.89 -36.65,61.38 -36.65,110.19 0,49.29 13.9,86.03 35.95,111.02 24.75,28.05 60.06,41.58 97.56,41.58 37.99,0 75.47,-13.86 101.97,-42.61 23.01,-24.98 37.9,-61.39 37.9,-109.99 0,-48.36 -14.62,-84.64 -37.3,-109.51 -25.97,-28.5 -62.72,-42.3 -100.18,-42.3 -37.98,0 -73.98,13.58 -99.25,41.62zm792.98 -97.32l-52.94 0 0 229.79c0,48.15 -12.74,84.68 -35.06,109.71 -23.91,26.8 -58.35,40.08 -99.62,40.08 -40.24,0 -73.73,-12.95 -97,-38.51 -21.99,-24.14 -34.49,-59.24 -34.49,-104.91l0 -236.16 -52.14 0 0 245.71c0,57.05 16.97,100.15 45.02,129.44 30.56,31.92 74.57,47.83 124.29,47.83 27.92,0 54.62,-6.18 77.54,-17.83 22.1,-11.24 40.69,-27.56 53.43,-48.32l18.03 -29.36 0 89.14 52.94 0 0 -416.61zm-62.68 -19.48l82.16 0 0 455.57 -91.89 0 0 -45.63c-12.29,13.02 -26.92,23.77 -43.17,32.03 -25.66,13.05 -55.4,19.96 -86.36,19.96 -54.94,0 -103.88,-17.9 -138.28,-53.83 -31.47,-32.86 -50.51,-80.5 -50.51,-142.91l0 -265.19 91.1 0 0 255.64c0,40.57 10.65,71.25 29.38,91.83 19.42,21.31 47.95,32.12 82.63,32.12 35.65,0 65.09,-11.12 85.09,-33.54 19.17,-21.5 30.12,-53.68 30.12,-96.78l0 -249.27 9.73 0z"/>
   <path class="fil1" d="M1297.87 49.59c135.15,0 244.71,109.56 244.71,244.71l-59.5 0c0,-102.29 -82.92,-185.2 -185.21,-185.2 -102.28,0 -185.2,82.91 -185.2,185.2l-59.5 0c0,-135.15 109.56,-244.71 244.7,-244.71z"/>
   <circle class="fil1" cx="1297.87" cy="294.3" r="95.04"/>
   <path class="fil2" d="M447.69 855.25l72.42 0 0 -554.67 -72.42 0 0 243.51 -282.51 0 0 -243.51 -72.41 0 0 554.67 72.41 0 0 -251.47 282.51 0 0 251.47zm380.39 -381.98c74.8,0 138.47,46.95 137.67,132.1l-275.34 0c7.95,-85.15 66.84,-132.1 137.67,-132.1zm203.72 247.49l-77.99 0c-15.91,46.95 -57.29,80.37 -122.55,80.37 -74.01,0 -136.08,-48.54 -141.65,-136.88l348.56 0c1.59,-15.11 2.39,-27.85 2.39,-43.76 0,-119.37 -82.77,-208.5 -209.3,-208.5 -127.33,0 -215.66,86.74 -215.66,224.41 0,138.47 91.52,226.01 215.66,226.01 108.23,0 178.26,-62.07 200.54,-141.65z"/>
   <path class="fil0" d="M1219.9 983.1l-20.57 50.28 -0.03 0 -52.05 127.21 46.89 0 49.16 -120.08 -23.4 -57.41zm-37.86 24.31l37.95 -92.78 51.28 125.77 -59.84 146.16 -102.72 0 73.29 -179.15 0.04 0z"/>
  </g>
 </g>
</svg>
